<?xml version="1.0" standalone="no"?>
<!DOCTYPE svg PUBLIC "-//W3C//DTD SVG 20010904//EN"
 "http://www.w3.org/TR/2001/REC-SVG-20010904/DTD/svg10.dtd">
<svg version="1.0" xmlns="http://www.w3.org/2000/svg"
 width="1920.000000pt" height="1080.000000pt" viewBox="0 0 1920.000000 1080.000000"
 preserveAspectRatio="xMidYMid meet">

<g transform="translate(0.000000,1080.000000) scale(0.100000,-0.100000)"
fill="#000000" stroke="none">
<path d="M9396 8752 c-422 -693 -656 -1081 -656 -1087 0 -2 -68 -113 -151
-247 -84 -134 -174 -281 -202 -328 -27 -47 -61 -104 -76 -127 -14 -23 -42 -67
-61 -99 -19 -31 -57 -92 -85 -135 -60 -94 -88 -139 -205 -329 -49 -80 -104
-170 -123 -200 -18 -30 -83 -135 -143 -233 -60 -97 -128 -208 -151 -245 -23
-37 -56 -92 -74 -122 -17 -30 -42 -68 -55 -83 -13 -16 -24 -33 -24 -38 0 -5
-18 -35 -40 -66 -22 -32 -40 -61 -40 -65 0 -3 -19 -36 -42 -71 -78 -118 -114
-181 -157 -267 -42 -83 -42 -84 -13 -55 16 17 166 183 334 370 167 187 443
495 613 686 171 190 445 496 610 680 164 183 338 377 386 429 47 52 191 212
319 355 129 143 236 261 240 263 3 1 178 -343 388 -765 923 -1860 930 -1872
913 -1877 -19 -6 -1452 -244 -2809 -466 -370 -61 -757 -127 -822 -140 -19 -4
1143 -8 2583 -9 l2619 -1 -28 48 c-15 26 -94 153 -175 282 -81 129 -275 438
-431 687 -156 249 -316 505 -357 570 -41 65 -93 150 -117 188 -24 39 -56 88
-71 110 -15 22 -58 90 -94 150 -36 61 -122 200 -191 310 -68 110 -400 641
-738 1180 -337 539 -624 996 -639 1015 -14 19 -28 40 -31 47 -3 7 -95 -135
-204 -315z"/>
<path d="M9275 6379 c-62 -11 -155 -40 -175 -54 -8 -5 -32 -19 -52 -29 -21
-11 -38 -23 -38 -28 0 -5 -8 -12 -17 -15 -19 -7 -123 -110 -123 -122 0 -4 -8
-16 -17 -27 -25 -27 -49 -79 -67 -143 -24 -81 -22 -281 3 -360 30 -96 92 -190
179 -272 129 -122 259 -171 457 -173 117 -1 234 16 297 43 67 28 118 77 118
112 0 32 -19 79 -32 79 -4 0 -8 5 -8 12 0 7 -12 25 -27 40 -35 36 -74 36 -156
1 -57 -26 -72 -28 -187 -28 -116 0 -129 2 -176 27 -66 35 -157 125 -191 191
-23 45 -27 64 -27 137 0 74 4 92 28 139 65 125 227 231 353 231 52 0 134 -22
207 -56 72 -34 106 -31 142 9 59 67 77 123 54 167 -15 29 -122 89 -176 100
-27 5 -65 14 -84 20 -41 12 -214 11 -285 -1z"/>
<path d="M7557 3202 c-14 -15 -17 -40 -17 -129 0 -77 4 -114 13 -121 7 -7 89
-12 204 -14 105 -2 194 -6 198 -9 3 -4 5 -233 5 -509 0 -457 1 -505 16 -522
15 -16 33 -18 144 -18 90 0 131 4 145 13 17 13 18 41 18 521 0 478 1 507 18
516 10 6 100 10 201 10 130 0 188 4 196 12 8 8 12 51 12 128 0 77 -4 120 -12
128 -9 9 -149 12 -568 12 -527 0 -558 -1 -573 -18z"/>
<path d="M8842 3208 c-9 -9 -12 -168 -12 -653 0 -609 1 -643 18 -658 26 -24
237 -25 270 -1 l22 15 0 379 c0 208 4 381 8 384 13 8 51 -22 67 -54 8 -16 50
-80 94 -142 43 -62 88 -133 101 -157 26 -52 268 -413 284 -424 15 -10 292 -4
303 6 4 5 9 294 11 642 l4 633 -25 17 c-20 13 -48 15 -148 13 l-124 -3 -3
-397 c-3 -441 -1 -433 -64 -366 -27 29 -98 132 -98 142 0 8 -87 151 -119 196
-17 25 -53 78 -79 119 -26 40 -65 101 -87 135 -22 33 -46 72 -53 86 -27 53
-42 75 -58 87 -24 18 -295 18 -312 1z"/>
<path d="M13297 3207 c-16 -11 -17 -44 -12 -432 8 -669 14 -868 28 -877 7 -4
226 -8 488 -8 379 0 479 3 487 13 18 21 28 223 12 242 -11 13 -59 15 -344 15
-182 0 -336 4 -343 8 -8 5 -13 143 -18 512 -6 495 -6 505 -26 523 -18 14 -41
17 -138 17 -78 0 -123 -4 -134 -13z"/>
<path d="M5395 3203 c-11 -3 -24 -9 -29 -14 -6 -5 -18 -9 -28 -9 -31 0 -127
-55 -191 -110 -78 -68 -178 -181 -196 -223 -8 -17 -24 -52 -35 -77 -19 -40
-21 -63 -21 -225 1 -166 2 -183 23 -222 12 -23 22 -48 22 -55 0 -23 67 -113
134 -181 66 -67 185 -151 241 -170 16 -5 35 -14 42 -19 37 -29 281 -41 423
-21 71 11 90 18 268 105 65 32 62 45 -48 207 -19 28 -41 53 -48 56 -8 3 -29
-4 -46 -14 -133 -85 -279 -117 -389 -87 -86 24 -194 77 -242 119 -115 99 -138
322 -49 476 39 67 117 137 193 173 63 31 71 32 196 33 116 0 135 -2 173 -22
23 -13 48 -23 55 -23 7 -1 28 -14 47 -30 19 -17 41 -30 50 -30 20 0 150 189
150 217 0 27 -128 104 -218 132 -62 18 -93 21 -264 20 -106 -1 -202 -3 -213
-6z"/>
<path d="M6256 3194 c-14 -14 -16 -86 -16 -649 0 -563 2 -635 16 -649 12 -13
40 -16 140 -16 69 0 134 5 145 10 18 10 19 25 19 383 0 205 4 378 9 386 8 12
12 12 25 2 9 -8 16 -18 16 -23 0 -6 24 -47 53 -91 30 -45 77 -120 106 -167 29
-47 63 -99 75 -117 11 -17 39 -60 60 -95 66 -106 124 -191 161 -233 l34 -40
151 -3 150 -3 11 28 c8 20 9 208 5 648 -5 573 -6 621 -22 632 -19 14 -227 19
-258 7 -14 -5 -16 -48 -16 -378 0 -387 -3 -418 -42 -404 -18 7 -83 101 -140
204 -15 27 -64 103 -108 169 -44 66 -85 130 -90 142 -16 37 -150 237 -172 256
-29 24 -288 26 -312 1z"/>
<path d="M10247 3204 c-4 -4 -7 -299 -7 -655 0 -631 1 -649 19 -659 25 -13
237 -13 262 0 17 10 19 22 19 118 0 149 -3 146 150 150 159 5 171 0 214 -92
19 -39 39 -86 46 -103 7 -18 23 -44 36 -58 22 -24 27 -25 147 -25 177 0 175
-3 107 146 -30 66 -62 131 -72 146 -10 14 -18 31 -18 38 0 7 37 49 83 93 61
60 94 102 122 157 36 71 39 81 43 184 6 149 -6 195 -78 299 -91 130 -168 190
-320 248 -26 10 -125 14 -390 17 -196 2 -359 0 -363 -4z m673 -295 c83 -32
119 -63 165 -143 52 -91 19 -183 -97 -274 -73 -57 -132 -72 -289 -72 -108 0
-128 3 -141 18 -13 14 -15 53 -13 244 2 161 6 232 15 243 9 10 38 15 108 17
133 4 166 0 252 -33z"/>
<path d="M12173 3203 c-10 -3 -13 -57 -13 -218 0 -132 -4 -216 -10 -220 -6 -4
-10 -158 -10 -430 0 -372 2 -425 16 -439 12 -13 39 -16 132 -16 64 0 127 3
140 6 l22 6 0 247 c0 179 3 250 12 259 9 9 69 12 209 12 141 0 200 3 205 12
11 18 4 241 -8 255 -8 10 -60 13 -202 13 -136 0 -196 4 -204 12 -16 16 -16
210 0 226 9 9 99 12 344 12 289 0 335 2 348 16 13 12 16 38 16 119 0 57 -3
110 -6 119 -5 14 -58 16 -493 15 -267 0 -492 -3 -498 -6z"/>
<path d="M14805 3193 c-113 -35 -187 -83 -293 -193 -106 -110 -196 -279 -207
-390 -16 -165 35 -334 142 -470 69 -88 124 -129 263 -196 30 -15 68 -34 85
-42 16 -9 52 -20 80 -26 66 -13 284 -13 360 1 61 11 195 73 272 125 59 40 200
181 208 210 4 12 15 34 25 48 9 14 26 55 38 93 30 93 32 296 3 380 -38 109
-92 196 -170 275 -62 63 -94 86 -171 123 -157 77 -170 79 -390 78 -146 0 -208
-4 -245 -16z m355 -254 c67 -15 200 -84 243 -126 73 -71 104 -175 94 -313 -10
-129 -40 -177 -163 -266 -83 -60 -145 -84 -239 -95 -44 -5 -94 -11 -111 -15
-40 -8 -135 36 -216 100 -45 36 -64 61 -96 125 -45 89 -67 175 -59 231 18 136
106 255 233 315 41 20 91 39 112 44 51 12 148 12 202 0z"/>
<path d="M15843 3203 c-32 -12 -22 -31 130 -256 32 -49 79 -118 103 -155 54
-84 54 -83 109 -164 25 -37 45 -71 45 -76 0 -9 -319 -492 -345 -522 -7 -8 -24
-37 -39 -65 -37 -71 -29 -75 152 -75 143 0 144 0 171 28 15 15 49 64 74 108
26 45 64 101 85 125 21 24 49 61 62 82 17 25 31 37 45 35 20 -3 31 -18 172
-226 106 -157 97 -152 265 -152 113 0 140 3 144 15 7 18 -21 68 -136 240 -48
72 -96 150 -107 175 -12 25 -46 83 -77 129 -31 47 -56 92 -56 101 0 14 154
257 252 398 16 23 44 71 62 105 18 34 42 78 54 96 35 58 22 63 -149 59 -134
-3 -150 -5 -164 -23 -8 -11 -65 -95 -126 -187 -61 -91 -117 -169 -125 -172
-25 -10 -47 9 -84 69 -93 153 -191 295 -209 304 -20 11 -284 14 -308 4z"/>
</g>
</svg>
